<svg width="159" height="26" viewBox="0 0 159 26" fill="none" xmlns="http://www.w3.org/2000/svg">
<g clip-path="url(#clip0_1_2)">
<path fill-rule="evenodd" clip-rule="evenodd" d="M29.5 5.28998C33.4 5.28998 37.5 7.68998 37.5 12.79C37.5 15.39 36.2 17.89 34.3 19.09L33.8 19.39L37.9 25.19H32.2L28.8 20.29H24.6V23.39C24.6 24.39 23.8 25.29 22.7 25.29H19.3V6.68998C19.3 5.88998 19.9 5.28998 20.7 5.28998H29.5ZM18 5.28998V8.58998C18 9.48998 17.3 10.19 16.4 10.19H11.6V23.49C11.6 24.49 10.8 25.39 9.7 25.39H6.4V10.09H0V6.28998C0 5.68998 0.5 5.28998 1 5.28998H18ZM56.2 5.28998V8.58998C56.2 9.48998 55.5 10.19 54.6 10.19H49.8V23.49C49.8 24.49 49 25.39 47.9 25.39H44.5V10.09H38.1V6.28998C38.1 5.68998 38.6 5.28998 39.1 5.28998H56.2ZM29.5 10.09H24.4V15.49H29.5C31.5 15.49 32.2 13.79 32.2 12.79C32.2 11.39 31.3 10.09 29.5 10.09Z" fill="url(#paint0_linear_1_2)"/>
<path d="M63.03 24.94H60.07L67.76 6.52003C67.94 6.03003 68.31 5.78003 68.86 5.78003H71.87L79.89 24.94H76.93C76.4 24.94 76.04 24.69 75.83 24.17L74.6 21.21H65.35L64.12 24.17C63.92 24.68 63.55 24.94 63.03 24.94ZM66.51 18.18H73.46L69.98 9.69003L66.5 18.18H66.51Z" fill="white"/>
<path d="M83.97 24.94H81.4V6.73002C81.4 6.09002 81.72 5.77002 82.36 5.77002H95.44V8.04002C95.44 8.68002 95.12 9.00002 94.48 9.00002H84.93V13.98H93.8V16.25C93.8 16.89 93.48 17.21 92.84 17.21H84.93V23.97C84.93 24.61 84.61 24.93 83.97 24.93V24.94Z" fill="white"/>
<path d="M97.19 24.94V6.68003C97.19 6.08003 97.49 5.78003 98.09 5.78003H105.97C108.18 5.78003 109.95 6.37003 111.29 7.56003C112.63 8.75003 113.3 10.36 113.3 12.41C113.3 13.93 112.9 15.22 112.09 16.3C111.29 17.38 110.18 18.12 108.78 18.52L113.43 24.95H109.43L105.13 18.98H100.7V23.8C100.7 24.11 100.59 24.38 100.37 24.61C100.15 24.84 99.89 24.95 99.58 24.95H97.17L97.19 24.94ZM100.72 8.95003V15.82H105.98C107.09 15.82 108 15.51 108.69 14.9C109.38 14.29 109.73 13.45 109.73 12.4C109.73 11.35 109.38 10.5 108.69 9.88003C108 9.26003 107.09 8.95003 105.98 8.95003H100.72Z" fill="white"/>
<path d="M117.31 3.75C116.75 3.75 116.27 3.57 115.9 3.22C115.52 2.86 115.34 2.42 115.34 1.89C115.34 1.36 115.53 0.91 115.9 0.55C116.27 0.18 116.74 0 117.31 0C117.88 0 118.31 0.18 118.68 0.55C119.05 0.92 119.23 1.36 119.23 1.89C119.23 2.42 119.05 2.86 118.68 3.22C118.31 3.58 117.86 3.75 117.31 3.75ZM118.08 24.94H115.51V6.73C115.51 6.09 115.83 5.77 116.47 5.77H119.04V23.97C119.04 24.61 118.72 24.93 118.08 24.93V24.94Z" fill="white"/>
<path d="M124.84 24.94H122.27V6.73002C122.27 6.09002 122.59 5.77002 123.23 5.77002H125.8V13.82H128.29L133.76 6.37002C134.05 5.97002 134.45 5.77002 134.94 5.77002H138.14L131.16 15.35L138.63 24.93H134.52L128.28 16.99H125.79V23.97C125.79 24.61 125.47 24.93 124.83 24.93L124.84 24.94Z" fill="white"/>
<path d="M141.46 24.94H138.5L146.19 6.52003C146.37 6.03003 146.74 5.78003 147.29 5.78003H150.3L158.32 24.94H155.36C154.83 24.94 154.47 24.69 154.27 24.17L153.04 21.21H143.79L142.56 24.17C142.36 24.68 142 24.94 141.47 24.94H141.46ZM144.94 18.18H151.89L148.41 9.69003L144.93 18.18H144.94Z" fill="white"/>
</g>
<defs>
<linearGradient id="paint0_linear_1_2" x1="55.83" y1="4.26998" x2="-0.369999" y2="24.17" gradientUnits="userSpaceOnUse">
<stop stop-color="#4CBFD7"/>
<stop offset="1" stop-color="#0C78B3"/>
</linearGradient>
<clipPath id="clip0_1_2">
<rect width="158.32" height="25.39" fill="white"/>
</clipPath>
</defs>
</svg>
